<svg xmlns="http://www.w3.org/2000/svg" version="1" viewBox="0 0 1354 459"><path d="M265.5 370.6H155.1c-47.4 0-85.9-38.5-85.9-85.9 0-47.3 38.5-85.9 85.9-85.9H290V88.4h24.5v233.1c.1 27.1-21.9 49.1-49 49.1zM155.1 223.4c-33.8 0-61.3 27.5-61.3 61.3s27.5 61.3 61.3 61.3h110.4c13.5 0 24.5-11 24.5-24.5v-98.1H155.1zm871.4 147.2H916.1c-47.3 0-85.9-38.5-85.9-85.9 0-47.3 38.5-85.9 85.9-85.9h110.4v24.5H916.1c-33.8 0-61.3 27.5-61.3 61.3s27.5 61.3 61.3 61.3h110.4v24.7z"/><path d="M834 370.6c-27.1 0-49.1-22-49.1-49.1V88.4h24.5v233.1c0 13.5 11 24.5 24.5 24.5v24.6zm-302.4 0H384.4c-27.1 0-49.1-22-49.1-49.1v-73.6c0-27.1 22-49.1 49.1-49.1h110.4c27.1 0 49.1 22 49.1 49.1s-22 49.1-49.1 49.1H359.9v24.5c0 13.5 11 24.5 24.5 24.5h147.2v24.6zm-171.7-98.2h134.9c13.5 0 24.5-11 24.5-24.5s-11-24.5-24.5-24.5H384.4c-13.5 0-24.5 11-24.5 24.5v24.5zm355.7 98.2H605.2c-27.1 0-49.1-22-49.1-49.1s22-49.1 49.1-49.1h134.9v-24.5c0-13.5-11-24.5-24.5-24.5H568.4v-24.5h147.2c27.1 0 49.1 22 49.1 49.1v73.6c0 27-22 49-49.1 49zM605.2 297c-13.5 0-24.5 11-24.5 24.5s11 24.5 24.5 24.5h110.4c13.5 0 24.5-11 24.5-24.5V297H605.2zm593.7 73.6h-73.6c-47.3 0-85.9-38.5-85.9-85.9 0-47.3 38.5-85.9 85.9-85.9h73.6c47.4 0 85.9 38.5 85.9 85.9 0 47.4-38.6 85.9-85.9 85.9zm-73.6-147.2c-33.8 0-61.3 27.5-61.3 61.3s27.5 61.3 61.3 61.3h73.6c33.8 0 61.3-27.5 61.3-61.3s-27.5-61.3-61.3-61.3h-73.6z"/><path fill="#27AAE1" d="M1141.8 300.5c-8.7 0-15.8-7.1-15.8-15.8 0-8.7 7.1-15.8 15.8-15.8h40.5c8.7 0 15.8 7.1 15.8 15.8 0 8.7-7.1 15.8-15.8 15.8h-40.5z"/></svg>